<?xml version="1.0" standalone="no"?>
<!DOCTYPE svg PUBLIC "-//W3C//DTD SVG 20010904//EN"
 "http://www.w3.org/TR/2001/REC-SVG-20010904/DTD/svg10.dtd">
<svg version="1.0" xmlns="http://www.w3.org/2000/svg"
 width="260.000000pt" height="260.000000pt" viewBox="0 0 260.000000 260.000000"
 preserveAspectRatio="xMidYMid meet">
<metadata>
Created by potrace 1.11, written by Peter Selinger 2001-2013
</metadata>
<g transform="translate(0.000000,260.000000) scale(0.100000,-0.100000)"
fill="#000000" stroke="none">
<path d="M0 1300 l0 -1300 1300 0 1300 0 0 1300 0 1300 -1300 0 -1300 0 0
-1300z m1431 660 c4 -19 10 -61 14 -93 7 -58 7 -59 52 -78 24 -10 48 -19 52
-19 5 0 38 23 74 50 36 28 74 50 84 50 24 0 163 -140 163 -164 0 -10 -23 -50
-51 -88 l-51 -69 19 -46 c21 -51 29 -55 136 -68 31 -3 64 -13 72 -21 19 -20
21 -202 3 -227 -9 -10 -41 -20 -98 -27 -47 -6 -88 -14 -91 -18 -3 -4 -13 -26
-23 -49 l-19 -42 52 -69 c28 -38 51 -79 51 -90 0 -28 -135 -162 -162 -162 -11
0 -52 23 -90 51 l-69 51 -47 -20 -47 -20 -13 -89 c-9 -57 -19 -92 -30 -101
-24 -18 -206 -16 -226 3 -8 8 -18 41 -21 72 -13 107 -17 115 -68 136 l-46 19
-69 -51 c-38 -28 -78 -51 -88 -51 -24 0 -164 139 -164 163 0 10 19 44 43 75
61 80 60 76 41 131 l-18 49 -90 11 c-49 7 -93 14 -98 17 -14 9 -10 230 5 242
6 5 51 15 98 22 l86 12 17 48 c20 54 20 52 -41 132 -24 31 -43 65 -43 75 0 25
140 163 165 163 11 0 49 -23 84 -50 36 -28 67 -50 70 -50 3 0 27 7 53 17 l46
16 12 86 c7 47 17 92 23 99 7 9 41 12 126 10 l115 -3 7 -35z"/>
<path d="M1229 1516 c-55 -19 -96 -53 -124 -100 -51 -87 -42 -191 23 -267 47
-54 101 -79 177 -79 210 0 307 264 146 401 -65 56 -146 73 -222 45z"/>
</g>
</svg>
